<?xml version="1.0" encoding="UTF-8"?>
<svg id="Ebene_1" data-name="Ebene 1" xmlns="http://www.w3.org/2000/svg" viewBox="0 0 648.39 648.39">
  <defs>
    <style>
      .cls-1 {
        fill: #000;
        stroke-width: 0px;
      }
    </style>
  </defs>
  <path class="cls-1" d="M254.24,647.26c-38.87-8.38-75.54-23.57-109.01-45.17l16.92-63.13-52.71-52.71-63.13,16.92c-21.6-33.47-36.8-70.14-45.17-109.01l56.62-32.69v-74.55L1.13,254.24c8.38-38.87,23.58-75.54,45.17-109.01l63.13,16.92,52.71-52.71-16.92-63.13C178.69,24.71,215.37,9.51,254.24,1.13l32.69,56.62h74.55L394.15,1.13c38.87,8.38,75.54,23.58,109.01,45.17l-16.92,63.13,52.71,52.71,63.13-16.92c21.6,33.47,36.8,70.14,45.17,109.01l-56.62,32.69v74.55l56.62,32.69c-8.38,38.86-23.57,75.54-45.17,109.01l-63.13-16.92-52.71,52.71,16.92,63.13c-33.47,21.6-70.14,36.8-109.01,45.17l-32.69-56.61h-74.55l-32.69,56.61ZM324.2,176.68c-81.34,0-147.51,66.17-147.51,147.51s66.17,147.51,147.51,147.51,147.51-66.17,147.51-147.51-66.17-147.51-147.51-147.51Z"/>
  <path class="cls-1" d="M394.41,1.7c38.56,8.35,74.95,23.43,108.18,44.83l-16.75,62.5-.15.56.41.41,52.3,52.3.41.41.56-.15,62.5-16.75c21.4,33.23,36.48,69.62,44.83,108.18l-56.05,32.36-.5.29v75.12l.5.29,56.05,32.36c-8.35,38.56-23.43,74.95-44.83,108.18l-62.5-16.75-.56-.15-.41.41-52.3,52.3-.41.41.15.56,16.75,62.5c-33.23,21.4-69.62,36.48-108.18,44.83l-32.36-56.05-.29-.5h-75.12l-.29.5-32.36,56.05c-38.56-8.35-74.95-23.43-108.18-44.83l16.75-62.5.15-.56-.41-.41-52.3-52.3-.41-.41-.56.15-62.5,16.75c-21.4-33.23-36.48-69.62-44.83-108.18l56.05-32.36.5-.29v-75.12l-.5-.29L1.7,253.99c8.35-38.56,23.43-74.95,44.83-108.18l62.5,16.75.56.15.41-.41,52.3-52.3.41-.41-.15-.56-16.75-62.5C179.04,25.13,215.43,10.05,253.98,1.7l32.36,56.05.29.5h75.12l.29-.5L394.41,1.7M324.2,472.21c81.61,0,148.01-66.4,148.01-148.01s-66.4-148.01-148.01-148.01-148.01,66.4-148.01,148.01,66.4,148.01,148.01,148.01M393.9.57l-32.72,56.68h-73.97L254.49.57c-39.72,8.52-76.8,24.15-109.84,45.52l16.93,63.2-52.3,52.3-63.2-16.93C24.71,177.68,9.08,214.76.57,254.49l56.68,32.72v73.97L.57,393.9c8.52,39.72,24.15,76.8,45.52,109.84l63.2-16.93,52.3,52.3-16.93,63.2c33.03,21.37,70.11,37,109.84,45.52l32.72-56.68h73.97l32.72,56.68c39.72-8.52,76.8-24.15,109.84-45.52l-16.93-63.2,52.3-52.3,63.2,16.93c21.37-33.03,37-70.11,45.52-109.84l-56.68-32.72v-73.97l56.68-32.72c-8.52-39.72-24.15-76.8-45.52-109.84l-63.2,16.93-52.3-52.3,16.93-63.2C470.71,24.71,433.63,9.08,393.9.57h0ZM324.2,471.21c-81.19,0-147.01-65.82-147.01-147.01s65.82-147.01,147.01-147.01,147.01,65.82,147.01,147.01-65.82,147.01-147.01,147.01h0Z"/>
</svg>