<?xml version="1.0" encoding="UTF-8"?>
<svg id="Ebene_1" data-name="Ebene 1" xmlns="http://www.w3.org/2000/svg" viewBox="0 0 426.7 426.57">
  <defs>
    <style>
      .cls-1 {
        fill: #000;
        stroke-width: 0px;
      }
    </style>
  </defs>
  <path class="cls-1" d="M171.93,30c37.91,0,73.55,14.76,100.36,41.57,26.81,26.81,41.57,62.45,41.57,100.36s-14.76,73.55-41.57,100.36c-26.81,26.81-62.45,41.57-100.36,41.57s-73.55-14.76-100.36-41.57c-26.81-26.81-41.57-62.45-41.57-100.36s14.76-73.55,41.57-100.36c26.81-26.81,62.45-41.57,100.36-41.57M171.93,0C76.98,0,0,76.98,0,171.93s76.98,171.93,171.93,171.93,171.93-76.98,171.93-171.93S266.88,0,171.93,0h0Z"/>
  <g>
    <path class="cls-1" d="M410.47,426.07c-3.08,0-5.97-1.19-8.13-3.35l-128.69-128.69c-4.48-4.48-4.48-11.78,0-16.26l4.24-4.24c2.16-2.16,5.05-3.35,8.13-3.35s5.97,1.19,8.13,3.35l128.69,128.69c4.48,4.48,4.48,11.78,0,16.26l-4.24,4.24c-2.16,2.16-5.05,3.35-8.13,3.35Z"/>
    <path class="cls-1" d="M286.02,270.67c2.95,0,5.71,1.14,7.78,3.21l128.69,128.69c4.29,4.29,4.29,11.27,0,15.56l-4.24,4.24c-2.07,2.07-4.83,3.21-7.78,3.21s-5.71-1.14-7.78-3.21l-128.69-128.69c-4.29-4.29-4.29-11.27,0-15.56l4.24-4.24c2.07-2.07,4.83-3.21,7.78-3.21M286.02,269.67c-3.08,0-6.15,1.17-8.49,3.5l-4.24,4.24c-4.67,4.67-4.67,12.3,0,16.97l128.69,128.69c2.33,2.33,5.41,3.5,8.49,3.5s6.15-1.17,8.49-3.5l4.24-4.24c4.67-4.67,4.67-12.3,0-16.97l-128.69-128.69c-2.33-2.33-5.41-3.5-8.49-3.5h0Z"/>
  </g>
</svg>