<?xml version="1.0" encoding="UTF-8"?>
<svg xmlns="http://www.w3.org/2000/svg" viewBox="0 0 362.33 499">
  <defs>
    <style>
      .cls-1 {
        stroke: #000;
        stroke-miterlimit: 10;
      }

      .cls-1, .cls-2 {
        fill: #000;
      }

      .cls-2 {
        stroke-width: 0px;
      }
    </style>
  </defs>
  <g id="Ebene_2" data-name="Ebene 2">
    <path class="cls-2" d="M56.12,59c-3.42,7.98-15,11-32,14-5.79,1.02,27,9,40,6,7.86-1.81,21.44-14.91,25.39-21.75,2.36-4.08,4.61-9.25,12.61-5.25,3.87,1.94,9.6-8.39,10-12,1-9-14.09-24.81-21-28-13-6-26.81,4.04-29,15-1,5-3,25-6,32Z"/>
    <path class="cls-2" d="M305.89,58.57c3.42,7.98,15,11,32,14,5.79,1.02-27,9-40,6-7.86-1.81-21.44-14.91-25.39-21.75-2.36-4.08-4.61-9.25-12.61-5.25-3.87,1.94-9.6-8.39-10-12-1-9,14.09-24.81,21-28,13-6,26.81,4.04,29,15,1,5,3,25,6,32Z"/>
  </g>
  <g id="Ebene_1" data-name="Ebene 1">
    <g>
      <path class="cls-2" d="M181.12,159.5c-43.84,0-79.5-35.66-79.5-79.5S137.29.5,181.12.5s79.5,35.66,79.5,79.5-35.66,79.5-79.5,79.5Z"/>
      <path class="cls-2" d="M181.12,1c43.56,0,79,35.44,79,79s-35.44,79-79,79-79-35.44-79-79S137.56,1,181.12,1M181.12,0c-44.18,0-80,35.82-80,80s35.82,80,80,80,80-35.82,80-80S225.31,0,181.12,0h0Z"/>
    </g>
    <path class="cls-1" d="M295.62,372.26H66.62c-6.6,0-12-5.4-12-12l45.15-171.48c0-7.18,3.47-13.05,7.72-13.05h147.27c4.24,0,7.72,5.87,7.72,13.05l45.15,171.48c0,6.6-5.4,12-12,12Z"/>
    <g>
      <rect class="cls-2" x="101.62" y="324.5" width="46" height="174" rx="11.5" ry="11.5"/>
      <path class="cls-2" d="M136.12,325c6.07,0,11,4.93,11,11v151c0,6.07-4.93,11-11,11h-23c-6.07,0-11-4.93-11-11v-151c0-6.07,4.93-11,11-11h23M136.12,324h-23c-6.6,0-12,5.4-12,12v151c0,6.6,5.4,12,12,12h23c6.6,0,12-5.4,12-12v-151c0-6.6-5.4-12-12-12h0Z"/>
    </g>
    <g>
      <rect class="cls-2" x="214.62" y="324.5" width="46" height="174" rx="11.5" ry="11.5"/>
      <path class="cls-2" d="M249.12,325c6.07,0,11,4.93,11,11v151c0,6.07-4.93,11-11,11h-23c-6.07,0-11-4.93-11-11v-151c0-6.07,4.93-11,11-11h23M249.12,324h-23c-6.6,0-12,5.4-12,12v151c0,6.6,5.4,12,12,12h23c6.6,0,12-5.4,12-12v-151c0-6.6-5.4-12-12-12h0Z"/>
    </g>
    <g>
      <path class="cls-2" d="M27,306.38c-3.19,0-6.26-1.33-8.42-3.64l-15-16.09c-2.09-2.24-3.18-5.17-3.07-8.24.11-3.08,1.4-5.92,3.64-8.01l97.27-90.71c2.13-1.98,4.91-3.08,7.84-3.08,3.19,0,6.26,1.33,8.42,3.64l15,16.09c2.09,2.24,3.18,5.17,3.07,8.24-.11,3.08-1.4,5.92-3.64,8.01l-97.27,90.71c-2.13,1.98-4.91,3.08-7.84,3.08Z"/>
      <path class="cls-2" d="M109.25,176.12v1c3.05,0,5.99,1.27,8.05,3.48l15,16.09c4.14,4.44,3.89,11.41-.54,15.55l-97.27,90.71c-2.03,1.9-4.7,2.94-7.5,2.94-3.05,0-5.99-1.27-8.05-3.48l-15-16.09c-4.14-4.44-3.89-11.41.54-15.55l97.27-90.71c2.03-1.9,4.7-2.94,7.5-2.94v-1M109.25,176.12c-2.93,0-5.88,1.06-8.18,3.21L3.8,270.03c-4.83,4.5-5.09,12.13-.59,16.96l15,16.09c2.35,2.52,5.56,3.8,8.78,3.8,2.93,0,5.88-1.06,8.18-3.21l97.27-90.71c4.83-4.5,5.09-12.13.59-16.96l-15-16.09c-2.35-2.52-5.56-3.8-8.78-3.8h0Z"/>
    </g>
    <g>
      <path class="cls-2" d="M335.34,306.21c-2.93,0-5.71-1.09-7.84-3.08l-97.27-90.71c-2.24-2.09-3.53-4.93-3.64-8.01-.11-3.08.98-6.01,3.07-8.24l15-16.09c2.16-2.31,5.23-3.64,8.42-3.64,2.93,0,5.71,1.09,7.84,3.08l97.27,90.71c2.24,2.09,3.53,4.93,3.64,8.01.11,3.08-.98,6.01-3.07,8.24l-15,16.09c-2.16,2.31-5.23,3.64-8.42,3.64h0Z"/>
      <path class="cls-2" d="M253.08,176.95c2.8,0,5.46,1.04,7.5,2.94l97.27,90.71c4.44,4.14,4.68,11.11.54,15.55l-15,16.09c-2.06,2.21-5,3.48-8.05,3.48-2.8,0-5.46-1.04-7.5-2.94l-97.27-90.71c-4.44-4.14-4.68-11.11-.54-15.55l15-16.09c2.06-2.21,5-3.48,8.05-3.48M253.08,175.95c-3.22,0-6.43,1.28-8.78,3.8l-15,16.09c-4.5,4.83-4.23,12.46.59,16.96l97.27,90.71c2.3,2.15,5.24,3.21,8.18,3.21,3.22,0,6.43-1.28,8.78-3.8l15-16.09c4.5-4.83,4.23-12.46-.59-16.96l-97.27-90.71c-2.3-2.15-5.24-3.21-8.18-3.21h0Z"/>
    </g>
  </g>
</svg>