<?xml version="1.0" encoding="UTF-8"?>
<svg xmlns="http://www.w3.org/2000/svg" viewBox="0 0 558.2 761.54">
  <defs>
    <style>
      .cls-1 {
        fill: #fff;
        stroke-width: 0px;
      }
    </style>
  </defs>
  <g id="Ebene_2" data-name="Ebene 2">
    <path class="cls-1" d="M88.27,90.04c-5.22,12.17-22.89,16.79-48.84,21.37-8.83,1.56,41.21,13.74,61.04,9.16,11.99-2.77,32.71-22.75,38.74-33.19,3.6-6.23,7.04-14.12,19.25-8.01,5.91,2.96,14.65-12.8,15.26-18.31,1.53-13.74-21.5-37.86-32.05-42.73-19.84-9.16-40.91,6.16-44.26,22.89-1.53,7.63-4.58,38.15-9.16,48.84Z"/>
    <path class="cls-1" d="M469.45,89.38c5.22,12.17,22.89,16.79,48.84,21.37,8.83,1.56-41.21,13.74-61.04,9.16-11.99-2.77-32.71-22.75-38.74-33.19-3.6-6.23-7.04-14.12-19.25-8.01-5.91,2.96-14.65-12.8-15.26-18.31-1.53-13.74,21.5-37.86,32.05-42.73,19.84-9.16,40.91,6.16,44.26,22.89,1.53,7.63,4.58,38.15,9.16,48.84Z"/>
  </g>
  <g id="Ebene_1" data-name="Ebene 1">
    <circle class="cls-1" cx="279.03" cy="122.09" r="122.09"/>
    <path class="cls-1" d="M453.77,568.12H104.29c-10.07,0-18.31-8.24-18.31-18.31l68.9-261.69c0-10.95,5.3-19.92,11.78-19.92h224.75c6.48,0,11.78,8.96,11.78,19.92l68.9,261.69c0,10.07-8.24,18.31-18.31,18.31Z"/>
    <rect class="cls-1" x="156.94" y="494.46" width="71.73" height="267.07" rx="12" ry="12"/>
    <rect class="cls-1" x="329.4" y="494.46" width="71.73" height="267.07" rx="12" ry="12"/>
    <rect class="cls-1" x="-13.22" y="333.46" width="239.6" height="70.2" rx="12" ry="12" transform="translate(-222.72 171.7) rotate(-43)"/>
    <rect class="cls-1" x="416.52" y="248.5" width="70.2" height="239.6" rx="12" ry="12" transform="translate(-125.74 447.41) rotate(-47)"/>
  </g>
</svg>