<?xml version="1.0" encoding="UTF-8"?>
<svg xmlns="http://www.w3.org/2000/svg" viewBox="0 0 362.33 499">
  <defs>
    <style>
      .cls-1 {
        fill: #fff;
        stroke-width: 0px;
      }
    </style>
  </defs>
  <g id="Ebene_2" data-name="Ebene 2">
    <path class="cls-1" d="M56.12,59c-3.42,7.98-15,11-32,14-5.79,1.02,27,9,40,6,7.86-1.81,21.44-14.91,25.39-21.75,2.36-4.08,4.61-9.25,12.61-5.25,3.87,1.94,9.6-8.39,10-12,1-9-14.09-24.81-21-28-13-6-26.81,4.04-29,15-1,5-3,25-6,32Z"/>
    <path class="cls-1" d="M305.89,58.57c3.42,7.98,15,11,32,14,5.79,1.02-27,9-40,6-7.86-1.81-21.44-14.91-25.39-21.75-2.36-4.08-4.61-9.25-12.61-5.25-3.87,1.94-9.6-8.39-10-12-1-9,14.09-24.81,21-28,13-6,26.81,4.04,29,15,1,5,3,25,6,32Z"/>
  </g>
  <g id="Ebene_1" data-name="Ebene 1">
    <circle class="cls-1" cx="181.12" cy="80" r="80"/>
    <path class="cls-1" d="M295.62,372.26H66.62c-6.6,0-12-5.4-12-12l45.15-171.48c0-7.18,3.47-13.05,7.72-13.05h147.27c4.24,0,7.72,5.87,7.72,13.05l45.15,171.48c0,6.6-5.4,12-12,12Z"/>
    <rect class="cls-1" x="101.12" y="324" width="47" height="175" rx="12" ry="12"/>
    <rect class="cls-1" x="214.12" y="324" width="47" height="175" rx="12" ry="12"/>
    <rect class="cls-1" x="-10.38" y="218.5" width="157" height="46" rx="12" ry="12" transform="translate(-146.4 111.34) rotate(-43)"/>
    <rect class="cls-1" x="271.21" y="162.83" width="46" height="157" rx="12" ry="12" transform="translate(-82.94 291.92) rotate(-47)"/>
  </g>
</svg>