<?xml version="1.0" encoding="UTF-8"?>
<svg xmlns="http://www.w3.org/2000/svg" viewBox="0 0 558.2 761.54">
  <defs>
    <style>
      .cls-1 {
        stroke: #000;
        stroke-miterlimit: 10;
      }

      .cls-1, .cls-2 {
        fill: #000;
      }

      .cls-2 {
        stroke-width: 0px;
      }
    </style>
  </defs>
  <g id="Ebene_2" data-name="Ebene 2">
    <path class="cls-2" d="M88.27,90.04c-5.22,12.17-22.89,16.79-48.84,21.37-8.83,1.56,41.21,13.74,61.04,9.16,11.99-2.77,32.71-22.75,38.74-33.19,3.6-6.23,7.04-14.12,19.25-8.01,5.91,2.96,14.65-12.8,15.26-18.31,1.53-13.74-21.5-37.86-32.05-42.73-19.84-9.16-40.91,6.16-44.26,22.89-1.53,7.63-4.58,38.15-9.16,48.84Z"/>
    <path class="cls-2" d="M469.45,89.38c5.22,12.17,22.89,16.79,48.84,21.37,8.83,1.56-41.21,13.74-61.04,9.16-11.99-2.77-32.71-22.75-38.74-33.19-3.6-6.23-7.04-14.12-19.25-8.01-5.91,2.96-14.65-12.8-15.26-18.31-1.53-13.74,21.5-37.86,32.05-42.73,19.84-9.16,40.91,6.16,44.26,22.89,1.53,7.63,4.58,38.15,9.16,48.84Z"/>
  </g>
  <g id="Ebene_1" data-name="Ebene 1">
    <g>
      <path class="cls-2" d="M279.03,243.68c-67.04,0-121.59-54.54-121.59-121.59S211.99.5,279.03.5s121.59,54.54,121.59,121.59-54.54,121.59-121.59,121.59Z"/>
      <path class="cls-2" d="M279.03,1c32.34,0,62.75,12.6,85.62,35.47,22.87,22.87,35.47,53.28,35.47,85.62s-12.6,62.75-35.47,85.62c-22.87,22.87-53.28,35.47-85.62,35.47s-62.75-12.6-85.62-35.47c-22.87-22.87-35.47-53.28-35.47-85.62s12.6-62.75,35.47-85.62C216.28,13.6,246.69,1,279.03,1M279.03,0c-67.43,0-122.09,54.66-122.09,122.09s54.66,122.09,122.09,122.09,122.09-54.66,122.09-122.09S346.46,0,279.03,0h0Z"/>
    </g>
    <path class="cls-1" d="M453.77,568.12H104.29c-10.07,0-18.31-8.24-18.31-18.31l68.9-261.69c0-10.95,5.3-19.92,11.78-19.92h224.75c6.48,0,11.78,8.96,11.78,19.92l68.9,261.69c0,10.07-8.24,18.31-18.31,18.31Z"/>
    <g>
      <rect class="cls-2" x="157.44" y="494.96" width="70.73" height="266.07" rx="11.5" ry="11.5"/>
      <path class="cls-2" d="M216.67,495.46c6.07,0,11,4.93,11,11v243.07c0,6.07-4.93,11-11,11h-47.73c-6.07,0-11-4.93-11-11v-243.07c0-6.07,4.93-11,11-11h47.73M216.67,494.46h-47.73c-6.6,0-12,5.4-12,12v243.07c0,6.6,5.4,12,12,12h47.73c6.6,0,12-5.4,12-12v-243.07c0-6.6-5.4-12-12-12h0Z"/>
    </g>
    <g>
      <rect class="cls-2" x="329.9" y="494.96" width="70.73" height="266.07" rx="11.5" ry="11.5"/>
      <path class="cls-2" d="M389.12,495.46c6.07,0,11,4.93,11,11v243.07c0,6.07-4.93,11-11,11h-47.73c-6.07,0-11-4.93-11-11v-243.07c0-6.07,4.93-11,11-11h47.73M389.12,494.46h-47.73c-6.6,0-12,5.4-12,12v243.07c0,6.6,5.4,12,12,12h47.73c6.6,0,12-5.4,12-12v-243.07c0-6.6-5.4-12-12-12h0Z"/>
    </g>
    <g>
      <path class="cls-2" d="M43.5,470.46c-3.19,0-6.26-1.33-8.42-3.64l-31.51-33.79c-2.09-2.24-3.18-5.16-3.07-8.24.11-3.08,1.4-5.92,3.64-8.01l157.68-147.04c2.13-1.98,4.91-3.08,7.84-3.08,3.19,0,6.26,1.33,8.42,3.64l31.51,33.79c4.32,4.64,4.07,11.93-.57,16.25L51.34,467.39c-2.13,1.98-4.91,3.07-7.84,3.07Z"/>
      <path class="cls-2" d="M169.66,266.16v1c3.05,0,5.99,1.27,8.05,3.48l31.51,33.79c4.14,4.44,3.89,11.41-.54,15.55L51,467.02c-2.03,1.9-4.7,2.94-7.5,2.94-3.05,0-5.99-1.27-8.05-3.48l-31.51-33.79c-4.14-4.44-3.89-11.41.54-15.55l157.68-147.04c2.03-1.9,4.7-2.94,7.5-2.94v-1M169.66,266.16c-2.93,0-5.88,1.06-8.18,3.21L3.8,416.41c-4.83,4.5-5.09,12.13-.59,16.96l31.51,33.79c2.35,2.52,5.56,3.8,8.78,3.8,2.93,0,5.88-1.06,8.18-3.21l157.68-147.04c4.83-4.5,5.09-12.13.59-16.96l-31.51-33.79c-2.35-2.52-5.56-3.8-8.78-3.8h0Z"/>
    </g>
    <g>
      <path class="cls-2" d="M514.7,470.2c-2.93,0-5.71-1.09-7.84-3.07l-157.68-147.04c-4.64-4.32-4.89-11.62-.57-16.25l31.51-33.79c2.16-2.31,5.23-3.64,8.42-3.64,2.93,0,5.71,1.09,7.84,3.07l157.68,147.04c2.24,2.09,3.53,4.93,3.64,8.01.11,3.08-.98,6.01-3.07,8.24l-31.51,33.79c-2.16,2.31-5.23,3.64-8.42,3.64h0Z"/>
      <path class="cls-2" d="M388.54,266.9c2.8,0,5.46,1.04,7.5,2.94l157.68,147.04c2.14,1.99,3.37,4.72,3.48,7.66.1,2.95-.94,5.75-2.93,7.89l-31.51,33.79c-2.06,2.21-5,3.48-8.05,3.48-2.8,0-5.46-1.04-7.5-2.94l-157.68-147.04c-2.14-1.99-3.37-4.72-3.48-7.66-.1-2.95.94-5.75,2.93-7.89l31.51-33.79c2.06-2.21,5-3.48,8.05-3.48M388.54,265.9c-3.22,0-6.43,1.28-8.78,3.8l-31.51,33.79c-4.5,4.83-4.23,12.46.59,16.96l157.68,147.04c2.3,2.15,5.24,3.21,8.18,3.21,3.22,0,6.43-1.28,8.78-3.8l31.51-33.79c4.5-4.83,4.23-12.46-.59-16.96l-157.68-147.04c-2.3-2.15-5.24-3.21-8.18-3.21h0Z"/>
    </g>
  </g>
</svg>