<?xml version="1.0" encoding="UTF-8"?>
<svg id="Ebene_1" data-name="Ebene 1" xmlns="http://www.w3.org/2000/svg" viewBox="0 0 941.33 585.5">
  <defs>
    <style>
      .cls-1 {
        fill: #000;
        stroke-width: 0px;
      }

      .cls-2 {
        fill: none;
        stroke: #000;
        stroke-miterlimit: 10;
        stroke-width: 30px;
      }
    </style>
  </defs>
  <path class="cls-1" d="M646.33,30c30.72,0,59.6,11.96,81.32,33.68,21.72,21.72,33.68,50.6,33.68,81.32s-11.96,59.6-33.68,81.32c-21.72,21.72-50.6,33.68-81.32,33.68s-59.6-11.96-81.32-33.68c-21.72-21.72-33.68-50.6-33.68-81.32s11.96-59.6,33.68-81.32c21.72-21.72,50.6-33.68,81.32-33.68M646.33,0c-80.08,0-145,64.92-145,145s64.92,145,145,145,145-64.92,145-145S726.41,0,646.33,0h0Z"/>
  <path class="cls-2" d="M926.33,570.5c0-154.92-125.58-280.5-280.5-280.5s-280.5,125.58-280.5,280.5h561Z"/>
</svg>