<?xml version="1.0" encoding="UTF-8"?>
<svg id="Ebene_1" data-name="Ebene 1" xmlns="http://www.w3.org/2000/svg" viewBox="0 0 497 497">
  <defs>
    <style>
      .cls-1 {
        fill: none;
        stroke: #000;
        stroke-miterlimit: 10;
        stroke-width: 20px;
      }
    </style>
  </defs>
  <path class="cls-1" d="M487,96.56v370.69c0,10.91-8.84,19.75-19.75,19.75H29.75c-10.91,0-19.75-8.84-19.75-19.75V29.75c0-10.91,8.84-19.75,19.75-19.75h366.21c5.02,0,9.84,1.91,13.5,5.34l71.29,66.81c3.98,3.73,6.24,8.95,6.24,14.41Z"/>
  <path class="cls-1" d="M379,487.1v-138.2c0-10.99-8.91-19.9-19.9-19.9h-221.2c-10.99,0-19.9,8.91-19.9,19.9v138.2"/>
  <path class="cls-1" d="M342,10.09v66.83c0,10.54-8.55,19.09-19.09,19.09H92.09c-10.54,0-19.09-8.55-19.09-19.09V10.09"/>
</svg>