<?xml version="1.0" encoding="UTF-8"?>
<svg id="Ebene_1" data-name="Ebene 1" xmlns="http://www.w3.org/2000/svg" viewBox="0 0 728.81 727.01">
  <defs>
    <style>
      .cls-1 {
        fill: #000;
        stroke-width: 0px;
      }

      .cls-2 {
        fill: none;
        stroke: #000;
        stroke-miterlimit: 10;
        stroke-width: 50px;
      }
    </style>
  </defs>
  <path class="cls-1" d="M363.7,50c33.51,0,65.01,13.05,88.71,36.74,23.69,23.69,36.74,55.2,36.74,88.71s-13.05,65.01-36.74,88.71c-23.69,23.69-55.2,36.74-88.71,36.74s-65.01-13.05-88.71-36.74c-23.69-23.69-36.74-55.2-36.74-88.71s13.05-65.01,36.74-88.71c23.69-23.69,55.2-36.74,88.71-36.74M363.7,0c-96.9,0-175.45,78.55-175.45,175.45s78.55,175.45,175.45,175.45,175.45-78.55,175.45-175.45S460.6,0,363.7,0h0Z"/>
  <path class="cls-2" d="M703.81,702.01c0-187.45-151.96-339.41-339.41-339.41S25,514.56,25,702.01h678.81Z"/>
</svg>