<?xml version="1.0" encoding="UTF-8"?>
<svg id="Ebene_1" data-name="Ebene 1" xmlns="http://www.w3.org/2000/svg" viewBox="0 0 708.81 717.01">
  <defs>
    <style>
      .cls-1 {
        fill: #000;
        stroke-width: 0px;
      }

      .cls-2 {
        fill: none;
        stroke: #000;
        stroke-miterlimit: 10;
        stroke-width: 30px;
      }
    </style>
  </defs>
  <path class="cls-1" d="M353.7,30c38.85,0,75.38,15.13,102.85,42.6,27.47,27.47,42.6,64,42.6,102.85s-15.13,75.38-42.6,102.85c-27.47,27.47-64,42.6-102.85,42.6s-75.38-15.13-102.85-42.6c-27.47-27.47-42.6-64-42.6-102.85s15.13-75.38,42.6-102.85c27.47-27.47,64-42.6,102.85-42.6M353.7,0c-96.9,0-175.45,78.55-175.45,175.45s78.55,175.45,175.45,175.45,175.45-78.55,175.45-175.45S450.6,0,353.7,0h0Z"/>
  <path class="cls-2" d="M693.81,702.01c0-187.45-151.96-339.41-339.41-339.41S15,514.56,15,702.01h678.81Z"/>
</svg>