<?xml version="1.0" encoding="UTF-8"?>
<svg id="Ebene_1" data-name="Ebene 1" xmlns="http://www.w3.org/2000/svg" viewBox="0 0 1608.37 1011.8">
  <defs>
    <style>
      .cls-1 {
        fill: #000;
      }

      .cls-1, .cls-2 {
        stroke-width: 0px;
      }

      .cls-2 {
        fill: #fff;
      }
    </style>
  </defs>
  <path class="cls-1" d="M218.12,444.11c1.38-23.66,15.05-38.11,32.88-50.69-18.41-.99-36.04-1.88-53.44-5.97-11.15-2.62-18.42-7.51-19.42-19.52-.14-1.72-.72-3.42-1.24-5.09-8.28-26.35-5.8-30.22,20.72-39.92,15.57-5.69,30.65-12.9,45.51-20.3,8.71-4.34,15.81-11.49,19.94-20.35,18.2-39.09,48.38-60.56,91.03-67.78,32.32-5.47,62.47-4.5,90.75,13.42,10.16,6.44,19.63,13.44,20.81,26.84.43,4.84,3.31,8.11,7.19,10.4,30.36,17.96,56.69,40.86,81.46,65.76,12.27,12.34,27.27,16.43,44.51,14.05,9.97-1.37,20.13-1.37,29.71,2.97,1.18.53,2.54.95,3.81.93,42.5-.68,82.77,16.67,125.29,15.53,21.07-.56,41.73-4.86,62.28-8.97,43.04-8.59,86.62-11.07,130.24-14.54,41.64-3.32,82.23.51,122.35,9.82,29.69,6.89,55.84.88,81.67-13.52,22.54-12.57,44.53-26.09,67.81-37.42,12.36-6.02,24.82-10.94,38.18-13.55,28.84-5.65,56.19-16.75,84.81-23.09,34.3-7.6,67.03-4.26,99.23,11.49,33.72,16.49,59.43,40.84,80.36,71.18,1.92,2.79,5.65,5.54,2.4,9.01-3.05,3.26-6.52.28-9.53-1.26-22.56-11.59-45-23.4-67.64-34.83-23.42-11.81-47.3-19.6-74.45-13.66-43.07,9.41-86.8,16.84-127.49,34.19-23.18,9.89-44.62,24.06-63.45,41.43-6.92,6.38-11.1,13.44-7.01,23.27.95,2.28,1.22,5.41.48,7.73-7.39,22.98,2.92,42.93,11.04,63.02,3.53,8.74,5.84,17.69,6.08,26.71,1.01,37.08,17.25,70.42,26.03,105.52,4.28,17.12,19.49,31.23,33.17,43.05,15.39,13.31,32.74,25.22,53.49,29.52,9.86,2.04,16.17,7.2,20.86,16.04,17.47,32.89,38.64,63.52,58.79,94.77,8.12,12.59,18.59,23.22,28.49,34.3,9.52,10.66,12.67,21.79,4.9,34.62-3.84,6.34-4.08,13.24-3.86,20.32.59,18.37-14.58,34.92-32.87,36.66-6.21.59-8.74-2.58-10.83-7.28-4.02-9.05-4.73-18.64-4.28-28.33,1.18-25.45-8.98-46.27-24.1-66.16-27.41-36.05-63.25-62.65-97.84-90.73-4.34-3.53-9.55-6.31-14.77-8.39-45.98-18.34-90.64-39.32-132.8-65.43-12.49-7.74-22.33-3.55-24.24,11.49-4.99,39.34-17.36,78.82-7.51,118.43,8.15,32.74-7.8,55.52-26.37,76.79-28.76,32.95-56.34,66.87-84.73,100.11-6.44,7.54-13.7,11.12-23.82,11.26-18.44.24-36.74-.56-55-3.04-14.01-1.9-26.66-22.11-21.63-34.8,1.46-3.68,5.04-4.88,8.27-5.91,9.99-3.18,19.97-6.68,30.2-8.8,45.46-9.41,89.01-57.21,93.47-103.38,1.35-13.92,6.34-27.37,5.25-41.59-.33-4.36.62-9.17-.9-13.03-10.48-26.71-8.68-56.02-18.63-82.97-9.54-25.85-10.17-54.11-19.71-80.23-3.79-10.36-8.14-13.58-19.18-10.78-21.09,5.35-40.1,15.18-58.77,25.58-10.22,5.69-20.73,9.52-32,10.84-33.06,3.88-63.76,14.39-92.68,30.69-8.13,4.58-13.7,10.66-15.71,19.88-8.86,40.56-17.89,81.09-26.51,121.71-1.55,7.3-6.24,16.21,2.28,21.76,8.52,5.54,18.89,5.06,27.83,1,7.81-3.55,15.07-6.63,23.8-4.91,1.86.37,4.28-.57,6.06-1.58,22.34-12.7,52.04-1.77,60.76,22.4,2.95,8.18,1.04,13.79-6.74,18.61-27.88,17.25-58.49,20.22-89.87,16.78-16.54-1.82-32.93-4.32-49.63-4.13-18.45.2-34.67-5.87-46.63-20.09-12.66-15.04-13.27-33.09-8.06-50.91,10.17-34.78,11.74-69.67,4.7-105.13-3.24-16.29-21.87-26.81-37.87-21.11-3.24,1.15-4.51,3.46-3.3,5.92,8.05,16.33-2.59,28.43-10.58,39.58-19.44,27.11-32.99,57.67-51.83,85.05-16.82,24.44-33.89,48.72-50.05,73.59-6.16,9.49-9.92,20.28-21.85,24.88-3.09,1.19-5.31,5.69-7.06,9.12-9.04,17.76-24.4,30.84-34.87,47.55-3.08,4.91-8.72,5.69-14.02,5.86-29.31.94-58.62,1.34-87.77-2.8-7.28-1.03-14.3-3.23-16.28-11.11-2.19-8.68,6.02-10.87,11.23-14.01,12.75-7.68,25.61-14.39,41.81-11.61,16.34,2.8,27.39-8.16,36.7-19.18,17.2-20.36,34.54-40.91,37.7-69.18,1.07-9.56,8.67-16.05,13.55-23.74,28-44.15,43.08-92.12,47.33-144.35,1.79-21.96-6.08-40.33-13.04-59.35-6.66-18.2-9.77-37.09-14.62-55.62-6.97-26.62-19.19-51.33-36.17-73.6-17.12-22.46-39.6-32.79-66.72-39.42-20.71-5.07-36.62-1.27-53.54,8.7-16.55,9.74-33.2,20.28-54.12,14.72-5.17-1.37-10.62-2.63-13.72-7.08-4.3-6.2-9.55-7.78-16.47-4.6Z"/>
  <path class="cls-2" d="M321.6,300.11c-2.01.17-7.36-1.49-14.39-6.18-14.85-14.07-17.98-3.13-14.85,5.47,1.56,3.91,6.65,5.47,14.85,5.47,7.61,0,12.5-1.37,14.42-4.69-.01-.02-.02-.05-.03-.07Z"/>
</svg>