<?xml version="1.0" encoding="UTF-8"?>
<svg id="Ebene_1" data-name="Ebene 1" xmlns="http://www.w3.org/2000/svg" viewBox="0 0 1337.37 841.32">
  <defs>
    <style>
      .cls-1 {
        fill: #000;
      }

      .cls-1, .cls-2 {
        stroke-width: 0px;
      }

      .cls-2 {
        fill: #fff;
      }
    </style>
  </defs>
  <path class="cls-1" d="M181.37,369.28c1.15-19.67,12.52-31.69,27.34-42.15-15.31-.82-29.97-1.57-44.43-4.96-9.27-2.18-15.32-6.24-16.15-16.24-.12-1.43-.6-2.85-1.03-4.23-6.89-21.91-4.82-25.13,17.23-33.19,12.95-4.73,25.49-10.72,37.84-16.88,7.24-3.61,13.15-9.56,16.58-16.92,15.14-32.5,40.23-50.36,75.69-56.36,26.87-4.55,51.95-3.74,75.46,11.16,8.45,5.36,16.32,11.17,17.31,22.32.36,4.02,2.75,6.75,5.98,8.65,25.25,14.93,47.14,33.98,67.74,54.68,10.2,10.26,22.67,13.66,37.01,11.68,8.29-1.14,16.74-1.14,24.7,2.47.98.44,2.11.79,3.17.77,35.34-.56,68.82,13.86,104.18,12.92,17.52-.47,34.69-4.04,51.79-7.46,35.79-7.15,72.02-9.21,108.29-12.09,34.62-2.76,68.37.43,101.73,8.17,24.69,5.73,46.43.73,67.91-11.25,18.74-10.45,37.03-21.69,56.38-31.12,10.28-5,20.64-9.1,31.75-11.27,23.98-4.69,46.73-13.93,70.52-19.2,28.52-6.32,55.73-3.54,82.51,9.56,28.04,13.71,49.41,33.96,66.82,59.19,1.6,2.32,4.7,4.61,2,7.49-2.53,2.71-5.42.23-7.92-1.05-18.76-9.63-37.42-19.46-56.24-28.96-19.47-9.82-39.33-16.29-61.9-11.36-35.82,7.83-72.18,14-106.01,28.43-19.27,8.22-37.1,20.01-52.76,34.45-5.75,5.3-9.23,11.17-5.83,19.35.79,1.89,1.02,4.5.4,6.43-6.14,19.11,2.43,35.69,9.18,52.4,2.94,7.27,4.85,14.71,5.06,22.21.84,30.83,14.34,58.56,21.64,87.74,3.56,14.23,16.2,25.97,27.58,35.8,12.8,11.07,27.22,20.97,44.48,24.54,8.2,1.7,13.45,5.99,17.35,13.33,14.53,27.35,32.13,52.82,48.89,78.8,6.75,10.47,15.46,19.31,23.69,28.52,7.92,8.86,10.54,18.12,4.07,28.79-3.19,5.27-3.4,11.01-3.21,16.89.49,15.28-12.12,29.03-27.33,30.48-5.16.49-7.27-2.15-9.01-6.05-3.35-7.53-3.93-15.5-3.56-23.55.98-21.17-7.46-38.47-20.04-55.01-22.79-29.97-52.6-52.09-81.36-75.45-3.61-2.93-7.94-5.24-12.28-6.98-38.24-15.25-75.37-32.69-110.42-54.41-10.39-6.43-18.57-2.96-20.15,9.55-4.15,32.71-14.44,65.54-6.24,98.48,6.78,27.23-6.49,46.16-21.93,63.85-23.92,27.4-46.85,55.6-70.46,83.24-5.35,6.27-11.39,9.25-19.8,9.36-15.33.2-30.55-.47-45.73-2.53-11.65-1.58-22.17-18.38-17.99-28.94,1.21-3.06,4.19-4.06,6.88-4.92,8.31-2.64,16.6-5.55,25.12-7.31,37.8-7.83,74.01-47.57,77.72-85.96,1.12-11.58,5.27-22.76,4.36-34.59-.28-3.63.51-7.62-.75-10.84-8.71-22.21-7.22-46.58-15.49-68.99-7.93-21.49-8.45-44.99-16.39-66.71-3.15-8.61-6.77-11.29-15.95-8.97-17.53,4.45-33.34,12.62-48.87,21.27-8.5,4.73-17.24,7.91-26.61,9.01-27.49,3.22-53.02,11.97-77.06,25.52-6.76,3.81-11.39,8.87-13.06,16.53-7.37,33.73-14.88,67.43-22.05,101.2-1.29,6.07-5.19,13.48,1.9,18.09,7.08,4.61,15.71,4.21,23.14.83,6.49-2.95,12.53-5.51,19.79-4.08,1.55.3,3.56-.47,5.04-1.32,18.58-10.56,43.27-1.47,50.52,18.62,2.45,6.8.87,11.47-5.61,15.48-23.18,14.35-48.63,16.82-74.73,13.95-13.75-1.51-27.38-3.59-41.27-3.44-15.34.17-28.83-4.88-38.78-16.71-10.52-12.51-11.03-27.52-6.7-42.34,8.45-28.92,9.77-57.93,3.9-87.42-2.69-13.54-18.18-22.29-31.49-17.55-2.69.96-3.75,2.88-2.74,4.92,6.69,13.58-2.15,23.64-8.8,32.91-16.16,22.54-27.43,47.95-43.1,70.72-13.98,20.32-28.18,40.51-41.61,61.19-5.12,7.89-8.25,16.86-18.16,20.68-2.57.99-4.42,4.73-5.87,7.58-7.51,14.77-20.29,25.64-28.99,39.53-2.56,4.08-7.25,4.73-11.66,4.87-24.37.78-48.74,1.11-72.98-2.33-6.05-.86-11.89-2.69-13.54-9.23-1.82-7.22,5-9.04,9.34-11.65,10.6-6.38,21.29-11.97,34.76-9.65,13.59,2.33,22.78-6.79,30.51-15.95,14.3-16.93,28.72-34.02,31.35-57.52.89-7.95,7.21-13.34,11.26-19.74,23.28-36.71,35.82-76.6,39.35-120.03,1.49-18.26-5.05-33.53-10.84-49.35-5.54-15.13-8.12-30.84-12.16-46.25-5.8-22.13-15.95-42.68-30.07-61.2-14.24-18.67-32.93-27.26-55.48-32.78-17.22-4.21-30.45-1.05-44.52,7.23-13.76,8.1-27.6,16.86-45,12.24-4.3-1.14-8.83-2.18-11.4-5.89-3.58-5.15-7.94-6.47-13.7-3.83Z"/>
  <path class="cls-2" d="M267.42,249.54c-1.67.14-6.12-1.24-11.97-5.14-12.35-11.7-14.95-2.6-12.35,4.55,1.3,3.25,5.53,4.55,12.35,4.55,6.33,0,10.4-1.14,11.99-3.9-.01-.02-.01-.04-.02-.06Z"/>
</svg>