<?xml version="1.0" encoding="UTF-8"?>
<svg id="Ebene_1" data-name="Ebene 1" xmlns="http://www.w3.org/2000/svg" viewBox="0 0 1121.7 762.48">
  <defs>
    <style>
      .cls-1 {
        stroke: #000;
        stroke-miterlimit: 10;
      }

      .cls-1, .cls-2 {
        fill: #000;
      }

      .cls-2 {
        stroke-width: 0px;
      }
    </style>
  </defs>
  <g>
    <rect class="cls-2" x="118.68" y="264.15" width="295.6" height="301.6" rx="15.5" ry="15.5"/>
    <path class="cls-2" d="M398.78,264.65c8.27,0,15,6.73,15,15v270.6c0,8.27-6.73,15-15,15H134.18c-8.27,0-15-6.73-15-15v-270.6c0-8.27,6.73-15,15-15h264.6M398.78,263.65H134.18c-8.8,0-16,7.2-16,16v270.6c0,8.8,7.2,16,16,16h264.6c8.8,0,16-7.2,16-16v-270.6c0-8.8-7.2-16-16-16h0Z"/>
  </g>
  <g>
    <rect class="cls-2" x="133.66" y="530.79" width="67.91" height="231.19" rx="11.5" ry="11.5"/>
    <path class="cls-2" d="M190.06,531.29c6.07,0,11,4.93,11,11v208.19c0,6.07-4.93,11-11,11h-44.91c-6.07,0-11-4.93-11-11v-208.19c0-6.07,4.93-11,11-11h44.91M190.06,530.29h-44.91c-6.6,0-12,5.4-12,12v208.19c0,6.6,5.4,12,12,12h44.91c6.6,0,12-5.4,12-12v-208.19c0-6.6-5.4-12-12-12h0Z"/>
  </g>
  <g>
    <rect class="cls-2" x="331.39" y="530.79" width="67.91" height="231.19" rx="11.5" ry="11.5"/>
    <path class="cls-2" d="M387.8,531.29c6.07,0,11,4.93,11,11v208.19c0,6.07-4.93,11-11,11h-44.91c-6.07,0-11-4.93-11-11v-208.19c0-6.07,4.93-11,11-11h44.91M387.8,530.29h-44.91c-6.6,0-12,5.4-12,12v208.19c0,6.6,5.4,12,12,12h44.91c6.6,0,12-5.4,12-12v-208.19c0-6.6-5.4-12-12-12h0Z"/>
  </g>
  <g>
    <path class="cls-2" d="M47.95,493.01c-2.29,0-4.51-.68-6.4-1.96l-35.99-24.27c-2.54-1.71-4.26-4.32-4.84-7.34s.03-6.09,1.74-8.62l123.96-183.77c2.14-3.17,5.71-5.06,9.56-5.06,2.29,0,4.51.68,6.4,1.95l35.99,24.27c2.54,1.71,4.26,4.32,4.84,7.34s-.03,6.09-1.74,8.62l-123.96,183.78c-2.14,3.17-5.71,5.06-9.56,5.06Z"/>
    <path class="cls-2" d="M135.98,262.48h0c2.19,0,4.31.65,6.12,1.87l35.99,24.27c2.42,1.64,4.07,4.13,4.63,7.02s-.03,5.82-1.66,8.25l-123.96,183.77c-2.04,3.03-5.46,4.84-9.15,4.84-2.19,0-4.31-.65-6.12-1.87l-35.99-24.27c-5.03-3.39-6.36-10.24-2.97-15.27l123.96-183.77c2.04-3.03,5.46-4.84,9.15-4.84M135.98,261.48c-3.86,0-7.67,1.85-9.98,5.28L2.04,450.54c-3.69,5.47-2.23,12.97,3.24,16.66l35.99,24.27c2.05,1.38,4.37,2.04,6.68,2.04,3.86,0,7.67-1.85,9.98-5.28l123.96-183.77c3.69-5.47,2.23-12.97-3.24-16.66l-35.99-24.27c-2.05-1.38-4.37-2.04-6.68-2.04h0Z"/>
  </g>
  <g>
    <path class="cls-2" d="M485.61,493.42c-3.85,0-7.43-1.89-9.56-5.06l-123.96-183.78c-1.71-2.54-2.33-5.6-1.74-8.62s2.31-5.63,4.84-7.34l35.99-24.27c1.9-1.28,4.11-1.95,6.4-1.95,3.85,0,7.43,1.89,9.56,5.06l123.96,183.77c1.71,2.54,2.33,5.6,1.74,8.62s-2.31,5.63-4.84,7.34l-35.99,24.28c-1.9,1.28-4.11,1.95-6.4,1.95h0Z"/>
    <path class="cls-2" d="M397.58,262.89c3.69,0,7.11,1.81,9.15,4.84l123.96,183.77c1.64,2.42,2.23,5.35,1.66,8.25-.56,2.89-2.21,5.39-4.63,7.02l-35.99,24.27c-1.81,1.22-3.93,1.87-6.12,1.87-3.69,0-7.11-1.81-9.15-4.84l-123.96-183.77c-1.64-2.42-2.23-5.35-1.66-8.25.56-2.89,2.21-5.39,4.63-7.02l35.99-24.27c1.81-1.22,3.93-1.87,6.12-1.87M397.58,261.89c-2.31,0-4.64.66-6.68,2.04l-35.99,24.27c-5.47,3.69-6.93,11.19-3.24,16.66l123.96,183.77c2.31,3.43,6.11,5.28,9.98,5.28,2.31,0,4.64-.66,6.68-2.04l35.99-24.27c5.47-3.69,6.93-11.19,3.24-16.66l-123.96-183.77c-2.31-3.43-6.11-5.28-9.98-5.28h0Z"/>
  </g>
  <g>
    <path class="cls-2" d="M266.48,239.18c-65.8,0-119.34-53.54-119.34-119.34S200.67.5,266.48.5s119.34,53.54,119.34,119.34-53.54,119.34-119.34,119.34Z"/>
    <path class="cls-2" d="M266.48,1c31.74,0,61.59,12.36,84.03,34.81,22.45,22.45,34.81,52.29,34.81,84.03s-12.36,61.59-34.81,84.03c-22.45,22.45-52.29,34.81-84.03,34.81s-61.59-12.36-84.03-34.81c-22.45-22.45-34.81-52.29-34.81-84.03s12.36-61.59,34.81-84.03C204.89,13.36,234.74,1,266.48,1M266.48,0c-66.19,0-119.84,53.65-119.84,119.84s53.65,119.84,119.84,119.84,119.84-53.65,119.84-119.84S332.66,0,266.48,0h0Z"/>
  </g>
  <path class="cls-2" d="M660.52,103.18c-5.12,11.95-22.47,16.48-47.94,20.97-8.67,1.53,40.45,13.48,59.92,8.99,11.77-2.72,32.11-22.33,38.03-32.58,3.53-6.11,6.91-13.86,18.89-7.86,5.8,2.9,14.38-12.56,14.98-17.98,1.5-13.48-21.1-37.16-31.46-41.94-19.47-8.99-40.16,6.05-43.44,22.47-1.5,7.49-4.49,37.45-8.99,47.94Z"/>
  <path class="cls-2" d="M1034.67,102.53c5.12,11.95,22.47,16.48,47.94,20.97,8.67,1.53-40.45,13.48-59.92,8.99-11.77-2.72-32.11-22.33-38.03-32.58-3.53-6.11-6.91-13.86-18.89-7.86-5.8,2.9-14.38-12.56-14.98-17.98-1.5-13.48,21.1-37.16,31.46-41.94,19.47-8.99,40.16,6.05,43.44,22.47,1.5,7.49,4.49,37.45,8.99,47.94Z"/>
  <g>
    <path class="cls-2" d="M847.77,253.98c-65.8,0-119.34-53.54-119.34-119.34s53.54-119.34,119.34-119.34,119.34,53.54,119.34,119.34-53.54,119.34-119.34,119.34Z"/>
    <path class="cls-2" d="M847.77,15.8c31.74,0,61.59,12.36,84.03,34.81,22.45,22.45,34.81,52.29,34.81,84.03s-12.36,61.59-34.81,84.03c-22.45,22.45-52.29,34.81-84.03,34.81s-61.59-12.36-84.03-34.81c-22.45-22.45-34.81-52.29-34.81-84.03s12.36-61.59,34.81-84.03c22.45-22.45,52.29-34.81,84.03-34.81M847.77,14.8c-66.19,0-119.84,53.65-119.84,119.84s53.65,119.84,119.84,119.84,119.84-53.65,119.84-119.84-53.65-119.84-119.84-119.84h0Z"/>
  </g>
  <path class="cls-1" d="M1019.29,572.45h-343.04c-9.89,0-17.98-8.09-17.98-17.98l67.63-256.87c0-10.75,5.2-19.55,11.56-19.55h220.61c6.36,0,11.56,8.8,11.56,19.55l67.63,256.87c0,9.89-8.09,17.98-17.98,17.98Z"/>
  <g>
    <rect class="cls-2" x="728.43" y="500.65" width="69.41" height="261.15" rx="11.5" ry="11.5"/>
    <path class="cls-2" d="M786.33,501.15c6.07,0,11,4.93,11,11v238.15c0,6.07-4.93,11-11,11h-46.41c-6.07,0-11-4.93-11-11v-238.15c0-6.07,4.93-11,11-11h46.41M786.33,500.15h-46.41c-6.6,0-12,5.4-12,12v238.15c0,6.6,5.4,12,12,12h46.41c6.6,0,12-5.4,12-12v-238.15c0-6.6-5.4-12-12-12h0Z"/>
  </g>
  <g>
    <rect class="cls-2" x="897.7" y="500.65" width="69.41" height="261.15" rx="11.5" ry="11.5"/>
    <path class="cls-2" d="M955.61,501.15c6.07,0,11,4.93,11,11v238.15c0,6.07-4.93,11-11,11h-46.41c-6.07,0-11-4.93-11-11v-238.15c0-6.07,4.93-11,11-11h46.41M955.61,500.15h-46.41c-6.6,0-12,5.4-12,12v238.15c0,6.6,5.4,12,12,12h46.41c6.6,0,12-5.4,12-12v-238.15c0-6.6-5.4-12-12-12h0Z"/>
  </g>
  <g>
    <path class="cls-2" d="M616.59,476.49c-3.19,0-6.26-1.33-8.42-3.64l-30.63-32.84c-4.32-4.64-4.07-11.93.57-16.25l154.45-144.03c2.13-1.98,4.91-3.08,7.84-3.08,3.19,0,6.26,1.33,8.42,3.64l30.63,32.84c4.32,4.64,4.07,11.93-.57,16.25l-154.45,144.03c-2.13,1.98-4.91,3.07-7.84,3.07Z"/>
    <path class="cls-2" d="M740.4,276.15v1c3.05,0,5.99,1.27,8.05,3.48l30.63,32.84c1.99,2.14,3.04,4.94,2.93,7.89-.1,2.95-1.34,5.67-3.48,7.66l-154.45,144.03c-2.03,1.9-4.7,2.94-7.5,2.94-3.05,0-5.99-1.27-8.05-3.48l-30.63-32.84c-1.99-2.14-3.04-4.94-2.93-7.89.1-2.95,1.34-5.67,3.48-7.66l154.45-144.03c2.03-1.9,4.7-2.94,7.5-2.94v-1M740.4,276.15c-2.93,0-5.88,1.06-8.18,3.21l-154.45,144.03c-4.83,4.5-5.09,12.13-.59,16.96l30.63,32.84c2.35,2.52,5.56,3.8,8.78,3.8,2.93,0,5.88-1.06,8.18-3.21l154.45-144.03c4.83-4.5,5.09-12.13.59-16.96l-30.63-32.84c-2.35-2.52-5.56-3.8-8.78-3.8h0Z"/>
  </g>
  <g>
    <path class="cls-2" d="M1079.08,476.23c-2.93,0-5.71-1.09-7.84-3.07l-154.45-144.03c-4.64-4.32-4.89-11.62-.57-16.25l30.63-32.84c2.16-2.31,5.23-3.64,8.42-3.64,2.93,0,5.71,1.09,7.84,3.07l154.45,144.03c4.64,4.33,4.89,11.62.57,16.25l-30.63,32.84c-2.16,2.31-5.23,3.64-8.42,3.64h0Z"/>
    <path class="cls-2" d="M955.27,276.89c2.8,0,5.46,1.04,7.5,2.94l154.45,144.03c2.14,1.99,3.37,4.72,3.48,7.66.1,2.95-.94,5.75-2.93,7.89l-30.63,32.84c-2.06,2.21-5,3.48-8.05,3.48-2.8,0-5.46-1.04-7.5-2.94l-154.45-144.03c-2.14-1.99-3.37-4.72-3.48-7.66-.1-2.95.94-5.75,2.93-7.89l30.63-32.84c2.06-2.21,5-3.48,8.05-3.48M955.27,275.89c-3.22,0-6.43,1.28-8.78,3.8l-30.63,32.84c-4.5,4.83-4.23,12.46.59,16.96l154.45,144.03c2.3,2.15,5.24,3.21,8.18,3.21,3.22,0,6.43-1.28,8.78-3.8l30.63-32.84c4.5-4.83,4.23-12.46-.59-16.96l-154.45-144.03c-2.3-2.15-5.24-3.21-8.18-3.21h0Z"/>
  </g>
</svg>