<?xml version="1.0" encoding="UTF-8"?>
<svg id="Ebene_1" data-name="Ebene 1" xmlns="http://www.w3.org/2000/svg" viewBox="0 0 1121.7 762.48">
  <defs>
    <style>
      .cls-1 {
        fill: #fff;
        stroke-width: 0px;
      }
    </style>
  </defs>
  <rect class="cls-1" x="118.18" y="263.65" width="296.6" height="302.6" rx="16" ry="16"/>
  <rect class="cls-1" x="133.16" y="530.29" width="68.91" height="232.19" rx="12" ry="12"/>
  <rect class="cls-1" x="330.89" y="530.29" width="68.91" height="232.19" rx="12" ry="12"/>
  <rect class="cls-1" x="-30.87" y="343.79" width="245.67" height="67.41" rx="12" ry="12" transform="translate(-272.42 242.64) rotate(-56)"/>
  <rect class="cls-1" x="407.89" y="255.07" width="67.41" height="245.67" rx="12" ry="12" transform="translate(-135.83 311.54) rotate(-34)"/>
  <circle class="cls-1" cx="266.48" cy="119.84" r="119.84"/>
  <path class="cls-1" d="M660.52,103.18c-5.12,11.95-22.47,16.48-47.94,20.97-8.67,1.53,40.45,13.48,59.92,8.99,11.77-2.72,32.11-22.33,38.03-32.58,3.53-6.11,6.91-13.86,18.89-7.86,5.8,2.9,14.38-12.56,14.98-17.98,1.5-13.48-21.1-37.16-31.46-41.94-19.47-8.99-40.16,6.05-43.44,22.47-1.5,7.49-4.49,37.45-8.99,47.94Z"/>
  <path class="cls-1" d="M1034.67,102.53c5.12,11.95,22.47,16.48,47.94,20.97,8.67,1.53-40.45,13.48-59.92,8.99-11.77-2.72-32.11-22.33-38.03-32.58-3.53-6.11-6.91-13.86-18.89-7.86-5.8,2.9-14.38-12.56-14.98-17.98-1.5-13.48,21.1-37.16,31.46-41.94,19.47-8.99,40.16,6.05,43.44,22.47,1.5,7.49,4.49,37.45,8.99,47.94Z"/>
  <circle class="cls-1" cx="847.77" cy="134.64" r="119.84"/>
  <path class="cls-1" d="M1019.29,572.45h-343.04c-9.89,0-17.98-8.09-17.98-17.98l67.63-256.87c0-10.75,5.2-19.55,11.56-19.55h220.61c6.36,0,11.56,8.8,11.56,19.55l67.63,256.87c0,9.89-8.09,17.98-17.98,17.98Z"/>
  <rect class="cls-1" x="727.93" y="500.15" width="70.41" height="262.15" rx="12" ry="12"/>
  <rect class="cls-1" x="897.2" y="500.15" width="70.41" height="262.15" rx="12" ry="12"/>
  <rect class="cls-1" x="560.9" y="342.11" width="235.19" height="68.91" rx="12" ry="12" transform="translate(-74.54 563.9) rotate(-43)"/>
  <rect class="cls-1" x="982.72" y="258.72" width="68.91" height="235.19" rx="12" ry="12" transform="translate(48.25 863.58) rotate(-47)"/>
</svg>