<?xml version="1.0" encoding="UTF-8"?>
<svg id="Ebene_1" data-name="Ebene 1" xmlns="http://www.w3.org/2000/svg" viewBox="0 0 745.59 509">
  <defs>
    <style>
      .cls-1 {
        stroke: #000;
        stroke-miterlimit: 10;
      }

      .cls-1, .cls-2 {
        fill: #000;
      }

      .cls-2 {
        stroke-width: 0px;
      }
    </style>
  </defs>
  <g>
    <rect class="cls-2" x="77.84" y="176.5" width="197" height="201" rx="15.5" ry="15.5"/>
    <path class="cls-2" d="M259.34,177c8.27,0,15,6.73,15,15v170c0,8.27-6.73,15-15,15H93.34c-8.27,0-15-6.73-15-15v-170c0-8.27,6.73-15,15-15h166M259.34,176H93.34c-8.8,0-16,7.2-16,16v170c0,8.8,7.2,16,16,16h166c8.8,0,16-7.2,16-16v-170c0-8.8-7.2-16-16-16h0Z"/>
  </g>
  <g>
    <rect class="cls-2" x="87.84" y="354.5" width="45" height="154" rx="11.5" ry="11.5"/>
    <path class="cls-2" d="M121.34,355c6.07,0,11,4.93,11,11v131c0,6.07-4.93,11-11,11h-22c-6.07,0-11-4.93-11-11v-131c0-6.07,4.93-11,11-11h22M121.34,354h-22c-6.6,0-12,5.4-12,12v131c0,6.6,5.4,12,12,12h22c6.6,0,12-5.4,12-12v-131c0-6.6-5.4-12-12-12h0Z"/>
  </g>
  <g>
    <rect class="cls-2" x="219.84" y="354.5" width="45" height="154" rx="11.5" ry="11.5"/>
    <path class="cls-2" d="M253.34,355c6.07,0,11,4.93,11,11v131c0,6.07-4.93,11-11,11h-22c-6.07,0-11-4.93-11-11v-131c0-6.07,4.93-11,11-11h22M253.34,354h-22c-6.6,0-12,5.4-12,12v131c0,6.6,5.4,12,12,12h22c6.6,0,12-5.4,12-12v-131c0-6.6-5.4-12-12-12h0Z"/>
  </g>
  <g>
    <path class="cls-2" d="M29.37,327.39c-2.29,0-4.51-.68-6.4-1.95l-17.41-11.74c-5.26-3.55-6.65-10.71-3.1-15.96l78.29-116.06c2.14-3.17,5.71-5.06,9.56-5.06,2.29,0,4.51.68,6.4,1.95l17.41,11.74c5.26,3.55,6.65,10.71,3.1,15.96l-78.29,116.07c-2.14,3.17-5.71,5.06-9.56,5.06Z"/>
    <path class="cls-2" d="M90.31,177.11h0c2.19,0,4.31.65,6.12,1.87l17.41,11.74c5.03,3.39,6.36,10.24,2.97,15.27l-78.29,116.07c-2.04,3.03-5.46,4.84-9.15,4.84-2.19,0-4.31-.65-6.12-1.87l-17.41-11.74c-5.03-3.39-6.36-10.24-2.97-15.27l78.29-116.07c2.04-3.03,5.46-4.84,9.15-4.84M90.3,176.11c-3.86,0-7.67,1.85-9.98,5.28L2.04,297.45c-3.69,5.47-2.23,12.97,3.24,16.66l17.41,11.74c2.05,1.38,4.37,2.04,6.68,2.04,3.86,0,7.67-1.85,9.98-5.28l78.29-116.07c3.69-5.47,2.23-12.97-3.24-16.66l-17.41-11.74c-2.05-1.38-4.37-2.04-6.68-2.04h0Z"/>
  </g>
  <g>
    <path class="cls-2" d="M323.7,327.67c-3.85,0-7.43-1.89-9.56-5.06l-78.29-116.07c-1.71-2.54-2.33-5.6-1.74-8.62s2.31-5.63,4.84-7.34l17.41-11.74c1.9-1.28,4.11-1.95,6.4-1.95,3.85,0,7.43,1.89,9.56,5.06l78.29,116.06c3.55,5.26,2.15,12.42-3.1,15.97l-17.41,11.74c-1.9,1.28-4.11,1.95-6.4,1.95h0Z"/>
    <path class="cls-2" d="M262.77,177.38c3.69,0,7.11,1.81,9.15,4.84l78.29,116.07c1.64,2.42,2.23,5.35,1.66,8.25-.56,2.89-2.21,5.39-4.63,7.02l-17.41,11.74c-1.81,1.22-3.93,1.87-6.12,1.87-3.69,0-7.11-1.81-9.15-4.84l-78.29-116.07c-3.39-5.03-2.06-11.88,2.97-15.27l17.41-11.74c1.81-1.22,3.93-1.87,6.12-1.87M262.77,176.38c-2.31,0-4.64.66-6.68,2.04l-17.41,11.74c-5.47,3.69-6.93,11.19-3.24,16.66l78.29,116.07c2.31,3.43,6.11,5.28,9.98,5.28,2.31,0,4.64-.66,6.68-2.04l17.41-11.74c5.47-3.69,6.93-11.19,3.24-16.66l-78.29-116.07c-2.31-3.43-6.11-5.28-9.98-5.28h0Z"/>
  </g>
  <g>
    <path class="cls-2" d="M176.34,159.5c-43.84,0-79.5-35.66-79.5-79.5S132.5.5,176.34.5s79.5,35.66,79.5,79.5-35.66,79.5-79.5,79.5Z"/>
    <path class="cls-2" d="M176.34,1c43.56,0,79,35.44,79,79s-35.44,79-79,79-79-35.44-79-79S132.78,1,176.34,1M176.34,0c-44.18,0-80,35.82-80,80s35.82,80,80,80,80-35.82,80-80S220.52,0,176.34,0h0Z"/>
  </g>
  <path class="cls-2" d="M439.38,68.88c-3.42,7.98-15,11-32,14-5.79,1.02,27,9,40,6,7.86-1.81,21.44-14.91,25.39-21.75,2.36-4.08,4.61-9.25,12.61-5.25,3.87,1.94,9.6-8.39,10-12,1-9-14.09-24.81-21-28-13-6-26.81,4.04-29,15-1,5-3,25-6,32Z"/>
  <path class="cls-2" d="M689.15,68.45c3.42,7.98,15,11,32,14,5.79,1.02-27,9-40,6-7.86-1.81-21.44-14.91-25.39-21.75-2.36-4.08-4.61-9.25-12.61-5.25-3.87,1.94-9.6-8.39-10-12-1-9,14.09-24.81,21-28,13-6,26.81,4.04,29,15,1,5,3,25,6,32Z"/>
  <g>
    <path class="cls-2" d="M564.38,169.38c-43.84,0-79.5-35.66-79.5-79.5s35.66-79.5,79.5-79.5,79.5,35.66,79.5,79.5-35.66,79.5-79.5,79.5Z"/>
    <path class="cls-2" d="M564.38,10.88c43.56,0,79,35.44,79,79s-35.44,79-79,79-79-35.44-79-79,35.44-79,79-79M564.38,9.88c-44.18,0-80,35.82-80,80s35.82,80,80,80,80-35.82,80-80-35.82-80-80-80h0Z"/>
  </g>
  <path class="cls-1" d="M678.88,382.14h-229c-6.6,0-12-5.4-12-12l45.15-171.48c0-7.18,3.47-13.05,7.72-13.05h147.27c4.24,0,7.72,5.87,7.72,13.05l45.15,171.48c0,6.6-5.4,12-12,12Z"/>
  <g>
    <rect class="cls-2" x="484.88" y="334.38" width="46" height="174" rx="11.5" ry="11.5"/>
    <path class="cls-2" d="M519.38,334.88c6.07,0,11,4.93,11,11v151c0,6.07-4.93,11-11,11h-23c-6.07,0-11-4.93-11-11v-151c0-6.07,4.93-11,11-11h23M519.38,333.88h-23c-6.6,0-12,5.4-12,12v151c0,6.6,5.4,12,12,12h23c6.6,0,12-5.4,12-12v-151c0-6.6-5.4-12-12-12h0Z"/>
  </g>
  <g>
    <rect class="cls-2" x="597.88" y="334.38" width="46" height="174" rx="11.5" ry="11.5"/>
    <path class="cls-2" d="M632.38,334.88c6.07,0,11,4.93,11,11v151c0,6.07-4.93,11-11,11h-23c-6.07,0-11-4.93-11-11v-151c0-6.07,4.93-11,11-11h23M632.38,333.88h-23c-6.6,0-12,5.4-12,12v151c0,6.6,5.4,12,12,12h23c6.6,0,12-5.4,12-12v-151c0-6.6-5.4-12-12-12h0Z"/>
  </g>
  <g>
    <path class="cls-2" d="M410.25,316.26c-3.19,0-6.26-1.33-8.42-3.64l-15-16.09c-4.32-4.64-4.07-11.93.57-16.25l97.27-90.71c2.13-1.98,4.91-3.07,7.84-3.07,3.19,0,6.26,1.33,8.42,3.64l15,16.09c4.32,4.64,4.07,11.93-.57,16.25l-97.27,90.71c-2.13,1.98-4.91,3.07-7.84,3.07Z"/>
    <path class="cls-2" d="M492.51,186v1c3.05,0,5.99,1.27,8.05,3.48l15,16.09c4.14,4.44,3.89,11.41-.54,15.55l-97.27,90.71c-2.03,1.9-4.7,2.94-7.5,2.94-3.05,0-5.99-1.27-8.05-3.48l-15-16.09c-4.14-4.44-3.89-11.41.54-15.55l97.27-90.71c2.03-1.9,4.7-2.94,7.5-2.94v-1M492.51,186c-2.93,0-5.88,1.06-8.18,3.21l-97.27,90.71c-4.83,4.5-5.09,12.13-.59,16.96l15,16.09c2.35,2.52,5.56,3.8,8.78,3.8,2.93,0,5.88-1.06,8.18-3.21l97.27-90.71c4.83-4.5,5.09-12.13.59-16.96l-15-16.09c-2.35-2.52-5.56-3.8-8.78-3.8h0Z"/>
  </g>
  <g>
    <path class="cls-2" d="M718.6,316.09c-2.93,0-5.71-1.09-7.84-3.07l-97.27-90.71c-4.64-4.32-4.89-11.62-.57-16.25l15-16.09c2.16-2.31,5.23-3.64,8.42-3.64,2.93,0,5.71,1.09,7.84,3.07l97.27,90.71c4.64,4.33,4.89,11.62.57,16.25l-15,16.09c-2.16,2.31-5.23,3.64-8.42,3.64h0Z"/>
    <path class="cls-2" d="M636.34,186.83c2.8,0,5.46,1.04,7.5,2.94l97.27,90.71c2.14,1.99,3.37,4.72,3.48,7.66.1,2.95-.94,5.75-2.93,7.89l-15,16.09c-2.06,2.21-5,3.48-8.05,3.48-2.8,0-5.46-1.04-7.5-2.94l-97.27-90.71c-2.14-1.99-3.37-4.72-3.48-7.66-.1-2.95.94-5.75,2.93-7.89l15-16.09c2.06-2.21,5-3.48,8.05-3.48M636.34,185.83c-3.22,0-6.43,1.28-8.78,3.8l-15,16.09c-4.5,4.83-4.23,12.46.59,16.96l97.27,90.71c2.3,2.15,5.24,3.21,8.18,3.21,3.22,0,6.43-1.28,8.78-3.8l15-16.09c4.5-4.83,4.23-12.46-.59-16.96l-97.27-90.71c-2.3-2.15-5.24-3.21-8.18-3.21h0Z"/>
  </g>
</svg>