<?xml version="1.0" encoding="UTF-8"?>
<svg id="Ebene_1" data-name="Ebene 1" xmlns="http://www.w3.org/2000/svg" viewBox="0 0 532.14 760.5">
  <defs>
    <style>
      .cls-1 {
        fill: #000;
        stroke-width: 0px;
      }
    </style>
  </defs>
  <g>
    <rect class="cls-1" x="118.36" y="263.46" width="294.83" height="300.81" rx="15.5" ry="15.5"/>
    <path class="cls-1" d="M397.69,263.96c8.27,0,15,6.73,15,15v269.81c0,8.27-6.73,15-15,15H133.86c-8.27,0-15-6.73-15-15v-269.81c0-8.27,6.73-15,15-15h263.83M397.69,262.96H133.86c-8.8,0-16,7.2-16,16v269.81c0,8.8,7.2,16,16,16h263.83c8.8,0,16-7.2,16-16v-269.81c0-8.8-7.2-16-16-16h0Z"/>
  </g>
  <g>
    <rect class="cls-1" x="133.3" y="529.41" width="67.73" height="230.59" rx="11.5" ry="11.5"/>
    <path class="cls-1" d="M189.53,529.91c6.07,0,11,4.93,11,11v207.59c0,6.07-4.93,11-11,11h-44.73c-6.07,0-11-4.93-11-11v-207.59c0-6.07,4.93-11,11-11h44.73M189.53,528.91h-44.73c-6.6,0-12,5.4-12,12v207.59c0,6.6,5.4,12,12,12h44.73c6.6,0,12-5.4,12-12v-207.59c0-6.6-5.4-12-12-12h0Z"/>
  </g>
  <g>
    <rect class="cls-1" x="330.52" y="529.41" width="67.73" height="230.59" rx="11.5" ry="11.5"/>
    <path class="cls-1" d="M386.75,529.91c6.07,0,11,4.93,11,11v207.59c0,6.07-4.93,11-11,11h-44.73c-6.07,0-11-4.93-11-11v-207.59c0-6.07,4.93-11,11-11h44.73M386.75,528.91h-44.73c-6.6,0-12,5.4-12,12v207.59c0,6.6,5.4,12,12,12h44.73c6.6,0,12-5.4,12-12v-207.59c0-6.6-5.4-12-12-12h0Z"/>
  </g>
  <g>
    <path class="cls-1" d="M47.8,491.71c-2.29,0-4.51-.68-6.4-1.95l-35.84-24.18c-2.54-1.71-4.26-4.32-4.84-7.34s.03-6.09,1.74-8.62l123.6-183.25c2.14-3.17,5.71-5.06,9.56-5.06,2.29,0,4.51.68,6.4,1.95l35.84,24.18c5.26,3.55,6.65,10.71,3.1,15.96l-123.6,183.25c-2.14,3.17-5.71,5.06-9.56,5.06Z"/>
    <path class="cls-1" d="M135.62,261.82h0c2.19,0,4.31.65,6.12,1.87l35.84,24.18c2.42,1.64,4.07,4.13,4.63,7.02.56,2.89-.03,5.82-1.66,8.25l-123.6,183.25c-2.04,3.03-5.46,4.84-9.15,4.84-2.19,0-4.31-.65-6.12-1.87l-35.84-24.18c-2.42-1.64-4.07-4.13-4.63-7.02s.03-5.82,1.66-8.25l123.6-183.25c2.04-3.03,5.46-4.84,9.15-4.84M135.62,260.82c-3.86,0-7.67,1.85-9.98,5.28L2.04,449.34c-3.69,5.47-2.23,12.97,3.24,16.66l35.84,24.18c2.05,1.38,4.37,2.04,6.68,2.04,3.86,0,7.67-1.85,9.98-5.28l123.6-183.25c3.69-5.47,2.23-12.97-3.24-16.66l-35.84-24.18c-2.05-1.38-4.37-2.04-6.68-2.04h0Z"/>
  </g>
  <g>
    <path class="cls-1" d="M484.34,492.12c-3.85,0-7.43-1.89-9.56-5.06l-123.6-183.25c-3.54-5.26-2.15-12.42,3.1-15.96l35.84-24.18c1.9-1.28,4.11-1.95,6.4-1.95,3.85,0,7.43,1.89,9.56,5.06l123.6,183.24c3.54,5.26,2.15,12.42-3.1,15.96l-35.84,24.18c-1.9,1.28-4.11,1.95-6.4,1.95h0Z"/>
    <path class="cls-1" d="M396.52,262.22c3.69,0,7.11,1.81,9.15,4.84l123.6,183.25c1.64,2.42,2.23,5.35,1.66,8.25-.56,2.89-2.21,5.39-4.63,7.02l-35.84,24.18c-1.81,1.22-3.93,1.87-6.12,1.87-3.69,0-7.11-1.81-9.15-4.84l-123.6-183.25c-1.64-2.42-2.23-5.35-1.66-8.25.56-2.89,2.21-5.39,4.63-7.02l35.84-24.18c1.81-1.22,3.93-1.87,6.12-1.87M396.52,261.22c-2.31,0-4.64.66-6.68,2.04l-35.84,24.18c-5.47,3.69-6.93,11.19-3.24,16.66l123.6,183.25c2.31,3.43,6.11,5.28,9.98,5.28,2.31,0,4.64-.66,6.68-2.04l35.84-24.18c5.47-3.69,6.93-11.19,3.24-16.66l-123.6-183.25c-2.31-3.43-6.11-5.28-9.98-5.28h0Z"/>
  </g>
  <g>
    <path class="cls-1" d="M265.77,238.56c-65.63,0-119.03-53.4-119.03-119.03S200.14.5,265.77.5s119.03,53.4,119.03,119.03-53.4,119.03-119.03,119.03Z"/>
    <path class="cls-1" d="M265.77,1c31.66,0,61.43,12.33,83.81,34.72,22.39,22.39,34.72,52.15,34.72,83.81s-12.33,61.43-34.72,83.81c-22.39,22.39-52.15,34.72-83.81,34.72s-61.43-12.33-83.81-34.72c-22.39-22.39-34.72-52.15-34.72-83.81s12.33-61.43,34.72-83.81C204.35,13.33,234.11,1,265.77,1M265.77,0c-66.01,0-119.53,53.51-119.53,119.53s53.51,119.53,119.53,119.53,119.53-53.51,119.53-119.53S331.79,0,265.77,0h0Z"/>
  </g>
</svg>