<?xml version="1.0" encoding="UTF-8"?>
<svg id="Ebene_1" data-name="Ebene 1" xmlns="http://www.w3.org/2000/svg" viewBox="0 0 482 482">
  <defs>
    <style>
      .cls-1 {
        fill: #fff;
      }

      .cls-1, .cls-2 {
        stroke: #000;
        stroke-miterlimit: 10;
        stroke-width: 5px;
      }

      .cls-2 {
        fill: none;
      }
    </style>
  </defs>
  <path class="cls-1" d="M479.5,89.06v370.69c0,10.91-8.84,19.75-19.75,19.75H22.25c-10.91,0-19.75-8.84-19.75-19.75V22.25C2.5,11.34,11.34,2.5,22.25,2.5h366.21c5.02,0,9.84,1.91,13.5,5.34l71.29,66.81c3.98,3.73,6.24,8.95,6.24,14.41Z"/>
  <path class="cls-2" d="M371.5,479.6v-138.2c0-10.99-8.91-19.9-19.9-19.9h-221.2c-10.99,0-19.9,8.91-19.9,19.9v138.2"/>
  <path class="cls-2" d="M334.5,2.59v66.83c0,10.54-8.55,19.09-19.09,19.09H84.59c-10.54,0-19.09-8.55-19.09-19.09V2.59"/>
</svg>